<svg class='svg-button' version="1.1" id="Layer_1" xmlns="http://www.w3.org/2000/svg" xmlns:xlink="http://www.w3.org/1999/xlink" x="0px" y="0px"
	 width="100%" viewBox="0 0 573 573" enable-background="new 0 0 573 573" xml:space="preserve">
<path fill="#FFFFFF" opacity="1.000000" stroke="none" 
	d="
M344.000000,574.000000 
	C229.333328,574.000000 115.166664,574.000000 1.000000,574.000000 
	C1.000000,383.000000 1.000000,192.000000 1.000000,1.000000 
	C192.000000,1.000000 383.000000,1.000000 574.000000,1.000000 
	C574.000000,192.000000 574.000000,383.000000 574.000000,574.000000 
	C497.500000,574.000000 421.000000,574.000000 344.000000,574.000000 
M238.500000,87.999786 
	C195.174301,87.999786 151.848572,87.981010 108.522957,88.038933 
	C105.390106,88.043114 102.213860,88.372078 99.134117,88.953979 
	C91.058937,90.479752 85.429832,97.483955 85.460991,105.644890 
	C85.491066,113.522835 91.056320,120.456932 98.898827,122.025047 
	C101.969208,122.638962 105.151665,122.960274 108.283249,122.961479 
	C227.762146,123.007256 347.241058,123.006592 466.719971,122.960800 
	C469.506012,122.959732 472.342560,122.605255 475.068329,122.013710 
	C483.265320,120.234764 488.474731,113.501251 488.395264,105.097069 
	C488.319611,97.095039 482.967957,90.612526 474.803497,88.955811 
	C471.910156,88.368698 468.911102,88.040146 465.959991,88.038246 
	C390.473358,87.989494 314.986664,87.999786 238.500000,87.999786 
M263.500000,273.999817 
	C211.842422,273.999817 160.184830,273.984009 108.527313,274.038666 
	C105.394531,274.041992 102.218277,274.371857 99.138420,274.953247 
	C91.061180,276.478027 85.431648,283.478607 85.460350,291.640564 
	C85.488045,299.518219 91.051964,306.454163 98.894562,308.024078 
	C101.964760,308.638672 105.147308,308.960205 108.278870,308.961426 
	C227.757767,309.007233 347.236664,309.006592 466.715576,308.960846 
	C469.501648,308.959778 472.338135,308.605652 475.063995,308.014435 
	C483.262787,306.236145 488.472565,299.505768 488.395264,291.101471 
	C488.321686,283.099854 482.969666,276.613312 474.807861,274.956451 
	C471.914581,274.369110 468.915497,274.040619 465.964417,274.038422 
	C398.809631,273.988251 331.654816,273.999817 263.500000,273.999817 
M144.500000,493.000183 
	C251.814423,493.000183 359.128845,493.000183 466.443268,493.000153 
	C467.609711,493.000153 468.779663,493.058960 469.942108,492.990692 
	C483.993988,492.165161 492.520233,479.757843 486.832825,468.139954 
	C482.879608,460.064514 475.484009,458.010040 467.236603,458.009125 
	C347.424408,457.995605 227.612228,457.992126 107.800056,458.042328 
	C104.670135,458.043640 101.469025,458.367157 98.423187,459.069672 
	C85.887306,461.960999 81.279854,477.730225 90.095978,487.129486 
	C94.581566,491.911804 100.450180,492.884979 106.507050,492.956573 
	C118.836479,493.102356 131.168839,493.000183 144.500000,493.000183 
z"/>
<path fill="#000000" opacity="1.000000" stroke="none" 
	d="
M239.000000,87.999786 
	C314.986664,87.999786 390.473358,87.989494 465.959991,88.038246 
	C468.911102,88.040146 471.910156,88.368698 474.803497,88.955811 
	C482.967957,90.612526 488.319611,97.095039 488.395264,105.097069 
	C488.474731,113.501251 483.265320,120.234764 475.068329,122.013710 
	C472.342560,122.605255 469.506012,122.959732 466.719971,122.960800 
	C347.241058,123.006592 227.762146,123.007256 108.283249,122.961479 
	C105.151665,122.960274 101.969208,122.638962 98.898827,122.025047 
	C91.056320,120.456932 85.491066,113.522835 85.460991,105.644890 
	C85.429832,97.483955 91.058937,90.479752 99.134117,88.953979 
	C102.213860,88.372078 105.390106,88.043114 108.522957,88.038933 
	C151.848572,87.981010 195.174301,87.999786 239.000000,87.999786 
z"/>
<path fill="#000000" opacity="1.000000" stroke="none" 
	d="
M264.000000,273.999817 
	C331.654816,273.999817 398.809631,273.988251 465.964417,274.038422 
	C468.915497,274.040619 471.914581,274.369110 474.807861,274.956451 
	C482.969666,276.613312 488.321686,283.099854 488.395264,291.101471 
	C488.472565,299.505768 483.262787,306.236145 475.063995,308.014435 
	C472.338135,308.605652 469.501648,308.959778 466.715576,308.960846 
	C347.236664,309.006592 227.757767,309.007233 108.278870,308.961426 
	C105.147308,308.960205 101.964760,308.638672 98.894562,308.024078 
	C91.051964,306.454163 85.488045,299.518219 85.460350,291.640564 
	C85.431648,283.478607 91.061180,276.478027 99.138420,274.953247 
	C102.218277,274.371857 105.394531,274.041992 108.527313,274.038666 
	C160.184830,273.984009 211.842422,273.999817 264.000000,273.999817 
z"/>
<path fill="#000000" opacity="1.000000" stroke="none" 
	d="
M144.000000,493.000183 
	C131.168839,493.000183 118.836479,493.102356 106.507050,492.956573 
	C100.450180,492.884979 94.581566,491.911804 90.095978,487.129486 
	C81.279854,477.730225 85.887306,461.960999 98.423187,459.069672 
	C101.469025,458.367157 104.670135,458.043640 107.800056,458.042328 
	C227.612228,457.992126 347.424408,457.995605 467.236603,458.009125 
	C475.484009,458.010040 482.879608,460.064514 486.832825,468.139954 
	C492.520233,479.757843 483.993988,492.165161 469.942108,492.990692 
	C468.779663,493.058960 467.609711,493.000153 466.443268,493.000153 
	C359.128845,493.000183 251.814423,493.000183 144.000000,493.000183 
z"/>
</svg>