<svg className="svg-button" version="1.1" id="Layer_1" xmlns="http://www.w3.org/2000/svg" xmlns:xlink="http://www.w3.org/1999/xlink" x="0px" y="0px"
	 width="100%" viewBox="0 0 564 564" enable-background="new 0 0 564 564" xml:space="preserve">
<path fill="#FFFFFF" opacity="1.000000" stroke="none" 
	d="
M297.000000,565.000000 
	C198.021820,565.000000 99.543633,565.000000 1.032725,565.000000 
	C1.032725,377.063477 1.032725,189.126923 1.032725,1.095186 
	C188.894852,1.095186 376.789764,1.095186 564.842346,1.095186 
	C564.842346,188.999893 564.842346,376.999939 564.842346,565.000000 
	C475.793549,565.000000 386.646759,565.000000 297.000000,565.000000 
M267.500031,95.089653 
	C243.336517,95.089653 219.173004,95.089363 195.009491,95.089737 
	C171.845795,95.090096 148.680954,94.945152 125.518639,95.124405 
	C85.892334,95.431084 54.280773,125.428146 54.042114,164.306442 
	C53.570549,241.126602 53.876919,317.951752 53.934731,394.774750 
	C53.943687,406.678955 57.064949,417.891174 63.212646,428.066193 
	C77.707199,452.056000 99.290756,463.806122 127.147560,463.834229 
	C217.469238,463.925354 307.791107,463.845886 398.112671,463.988861 
	C400.594391,463.992798 403.707825,465.127319 405.453247,466.833099 
	C419.632446,480.690125 433.546448,494.818268 447.558624,508.846436 
	C459.333862,520.635010 471.006714,532.530029 482.966919,544.128296 
	C490.398956,551.335449 500.810516,550.299866 505.515991,541.830261 
	C507.185791,538.824768 507.705536,534.838074 507.708679,531.298401 
	C507.816132,410.480621 507.814941,289.662720 507.741821,168.844879 
	C507.738586,163.539917 507.392548,158.142731 506.390564,152.945755 
	C499.778076,118.647850 470.794922,95.170631 434.978729,95.113571 
	C379.485962,95.025162 323.992950,95.089867 267.500031,95.089653 
z"/>
<path fill="#040404" opacity="1.000000" stroke="none" 
	d="
M268.000061,95.089653 
	C323.992950,95.089867 379.485962,95.025162 434.978729,95.113571 
	C470.794922,95.170631 499.778076,118.647850 506.390564,152.945755 
	C507.392548,158.142731 507.738586,163.539917 507.741821,168.844879 
	C507.814941,289.662720 507.816132,410.480621 507.708679,531.298401 
	C507.705536,534.838074 507.185791,538.824768 505.515991,541.830261 
	C500.810516,550.299866 490.398956,551.335449 482.966919,544.128296 
	C471.006714,532.530029 459.333862,520.635010 447.558624,508.846436 
	C433.546448,494.818268 419.632446,480.690125 405.453247,466.833099 
	C403.707825,465.127319 400.594391,463.992798 398.112671,463.988861 
	C307.791107,463.845886 217.469238,463.925354 127.147560,463.834229 
	C99.290756,463.806122 77.707199,452.056000 63.212646,428.066193 
	C57.064949,417.891174 53.943687,406.678955 53.934731,394.774750 
	C53.876919,317.951752 53.570549,241.126602 54.042114,164.306442 
	C54.280773,125.428146 85.892334,95.431084 125.518639,95.124405 
	C148.680954,94.945152 171.845795,95.090096 195.009491,95.089737 
	C219.173004,95.089363 243.336517,95.089653 268.000061,95.089653 
M138.500092,435.304840 
	C227.159180,435.304871 315.818329,435.346375 404.477234,435.221161 
	C411.100494,435.211823 416.318451,437.074005 420.957123,441.861633 
	C432.550934,453.827728 444.462158,465.485474 456.168854,477.343140 
	C463.468201,484.736572 470.627228,492.268585 477.849213,499.738403 
	C479.085907,498.025543 479.183380,497.093781 479.183411,496.162018 
	C479.189697,386.504578 479.264191,276.846985 479.001556,167.190186 
	C478.985718,160.579132 477.478149,153.391159 474.598175,147.478149 
	C466.523743,130.900085 452.355652,123.567848 434.057434,123.594971 
	C387.894745,123.663406 341.731934,123.616493 295.569153,123.616547 
	C239.407211,123.616608 183.245209,123.564278 127.083382,123.641426 
	C100.910637,123.677376 82.221146,141.322464 82.137253,166.937958 
	C81.891632,241.930832 81.949165,316.925232 82.115639,391.918549 
	C82.161758,412.698975 94.981689,429.344055 114.646698,433.860596 
	C121.987892,435.546692 129.866669,434.892151 138.500092,435.304840 
z"/>
<path fill="#FFFFFF" opacity="1.000000" stroke="none" 
	d="
M138.000214,435.304840 
	C129.866669,434.892151 121.987892,435.546692 114.646698,433.860596 
	C94.981689,429.344055 82.161758,412.698975 82.115639,391.918549 
	C81.949165,316.925232 81.891632,241.930832 82.137253,166.937958 
	C82.221146,141.322464 100.910637,123.677376 127.083382,123.641426 
	C183.245209,123.564278 239.407211,123.616608 295.569153,123.616547 
	C341.731934,123.616493 387.894745,123.663406 434.057434,123.594971 
	C452.355652,123.567848 466.523743,130.900085 474.598175,147.478149 
	C477.478149,153.391159 478.985718,160.579132 479.001556,167.190186 
	C479.264191,276.846985 479.189697,386.504578 479.183411,496.162018 
	C479.183380,497.093781 479.085907,498.025543 477.849213,499.738403 
	C470.627228,492.268585 463.468201,484.736572 456.168854,477.343140 
	C444.462158,465.485474 432.550934,453.827728 420.957123,441.861633 
	C416.318451,437.074005 411.100494,435.211823 404.477234,435.221161 
	C315.818329,435.346375 227.159180,435.304871 138.000214,435.304840 
M253.500000,336.065338 
	C220.085876,336.065338 186.671768,336.065338 153.325745,336.065338 
	C153.325745,345.859100 153.325745,355.076813 153.325745,364.346252 
	C238.381485,364.346252 323.101318,364.346252 408.065277,364.346252 
	C408.065277,354.866272 408.065277,345.608673 408.065277,336.065338 
	C356.743805,336.065338 305.621887,336.065338 253.500000,336.065338 
M364.500061,265.175354 
	C294.091614,265.175354 223.683136,265.175354 153.306000,265.175354 
	C153.306000,275.001923 153.306000,284.236847 153.306000,293.571411 
	C238.357834,293.571411 323.093567,293.571411 408.069458,293.571411 
	C408.069458,284.111877 408.069458,274.845612 408.069458,265.175354 
	C393.742798,265.175354 379.621460,265.175354 364.500061,265.175354 
M227.499969,222.896591 
	C249.906540,222.896591 272.313110,222.896591 294.645142,222.896591 
	C294.645142,213.065491 294.645142,203.847916 294.645142,194.650543 
	C247.272064,194.650543 200.240524,194.650543 153.317657,194.650543 
	C153.317657,204.200836 153.317657,213.440414 153.317657,222.896591 
	C177.929810,222.896591 202.214890,222.896591 227.499969,222.896591 
z"/>
<path fill="#050505" opacity="1.000000" stroke="none" 
	d="
M254.000000,336.065338 
	C305.621887,336.065338 356.743805,336.065338 408.065277,336.065338 
	C408.065277,345.608673 408.065277,354.866272 408.065277,364.346252 
	C323.101318,364.346252 238.381485,364.346252 153.325745,364.346252 
	C153.325745,355.076813 153.325745,345.859100 153.325745,336.065338 
	C186.671768,336.065338 220.085876,336.065338 254.000000,336.065338 
z"/>
<path fill="#050505" opacity="1.000000" stroke="none" 
	d="
M365.000092,265.175354 
	C379.621460,265.175354 393.742798,265.175354 408.069458,265.175354 
	C408.069458,274.845612 408.069458,284.111877 408.069458,293.571411 
	C323.093567,293.571411 238.357834,293.571411 153.306000,293.571411 
	C153.306000,284.236847 153.306000,275.001923 153.306000,265.175354 
	C223.683136,265.175354 294.091614,265.175354 365.000092,265.175354 
z"/>
<path fill="#050505" opacity="1.000000" stroke="none" 
	d="
M226.999969,222.896591 
	C202.214890,222.896591 177.929810,222.896591 153.317657,222.896591 
	C153.317657,213.440414 153.317657,204.200836 153.317657,194.650543 
	C200.240524,194.650543 247.272064,194.650543 294.645142,194.650543 
	C294.645142,203.847916 294.645142,213.065491 294.645142,222.896591 
	C272.313110,222.896591 249.906540,222.896591 226.999969,222.896591 
z"/>
</svg>