<svg class='svg-button' version="1.1" id="Layer_1" xmlns="http://www.w3.org/2000/svg" xmlns:xlink="http://www.w3.org/1999/xlink" x="0px" y="0px"
	 width="100%" viewBox="0 0 560 560" enable-background="new 0 0 560 560" xml:space="preserve">
<path fill="#000000" opacity="1.000000" stroke="none" 
	d="
M285.381653,53.262016 
	C299.095520,53.766064 306.214905,61.131176 306.264557,74.397324 
	C306.290741,81.396225 306.616241,88.417320 306.164825,95.386826 
	C305.843231,100.351791 307.702393,102.147484 312.415192,102.661606 
	C329.160828,104.488426 345.024475,109.470161 359.708466,117.663795 
	C400.477539,140.412872 424.585388,174.833923 431.407928,221.172607 
	C432.672180,229.759552 432.973816,238.400986 432.979553,247.055084 
	C433.001343,279.883636 433.122711,312.713470 432.847046,345.539825 
	C432.782715,353.199371 435.178345,358.121796 442.084167,362.077332 
	C464.186646,374.737457 477.374725,394.097565 481.862946,419.108154 
	C482.928375,425.045197 484.301941,431.193146 482.404510,437.399506 
	C480.038086,445.139984 475.189423,450.008820 467.141144,451.366913 
	C464.529297,451.807648 461.843750,451.986725 459.191803,451.987732 
	C427.029907,451.999908 394.867981,451.956787 362.706085,451.926971 
	C355.584564,451.920349 355.503448,451.997864 355.349548,459.132843 
	C354.761719,486.389740 330.979218,514.156555 303.081299,520.157593 
	C262.256409,528.939270 225.017517,503.178741 218.895996,461.920959 
	C218.871536,461.756134 218.851944,461.590607 218.831055,461.425293 
	C217.629105,451.915985 217.629135,451.939819 208.104645,451.948181 
	C176.442581,451.976013 144.780334,452.051300 113.118523,451.970062 
	C99.754463,451.935791 91.686325,444.757385 91.107758,432.524078 
	C90.935997,428.892548 91.235382,425.177734 91.816193,421.581390 
	C96.053574,395.343658 109.306137,375.045197 132.500580,361.832214 
	C139.008316,358.125061 141.672287,353.301880 141.650589,346.114777 
	C141.543961,310.786835 141.686935,275.458008 141.541107,240.130325 
	C141.414429,209.440765 150.280029,181.659302 168.702820,157.212112 
	C192.176437,126.062485 223.284897,107.531067 262.201843,102.631264 
	C265.999908,102.153069 268.182159,100.864433 267.981598,96.383949 
	C267.646606,88.900414 267.766846,81.387115 267.943634,73.892204 
	C268.222107,62.084999 274.054596,55.172031 285.381653,53.262016 
M357.140717,161.368088 
	C344.737030,151.704803 330.952087,144.952240 315.540771,141.626801 
	C303.227386,138.969849 290.729370,139.023453 278.253632,139.386887 
	C252.248093,140.144485 229.469284,149.098038 210.591736,167.181900 
	C189.495804,187.390884 179.535065,212.464432 179.386841,241.448380 
	C179.200256,277.934082 179.332794,314.421478 179.344925,350.908142 
	C179.348801,362.543182 175.349915,372.691040 168.171936,381.729034 
	C163.836319,387.188141 158.291443,391.059875 152.307205,394.461029 
	C144.701904,398.783478 138.212875,404.220215 134.407669,413.236938 
	C236.375931,413.236938 337.660431,413.236938 439.138519,413.236938 
	C439.223419,410.902496 438.088593,409.452332 437.083923,407.965576 
	C432.978149,401.889343 427.373535,397.583923 421.073456,393.951721 
	C403.565460,383.857666 394.696442,368.642517 394.682129,348.388336 
	C394.655975,311.401855 394.728760,274.415192 394.609894,237.429092 
	C394.593414,232.300964 394.104340,227.105286 393.179749,222.060806 
	C388.711700,197.683929 376.754150,177.635757 357.140717,161.368088 
M274.552063,481.030151 
	C294.156738,488.951080 313.961975,477.894684 317.416473,457.155121 
	C317.950195,453.950714 317.434937,451.983063 313.589691,451.990570 
	C295.929932,452.025177 278.269867,451.985535 260.610168,451.911743 
	C256.929932,451.896362 256.028748,453.623138 256.664581,456.992706 
	C258.672455,467.633484 264.056366,475.760162 274.552063,481.030151 
z"/>
</svg>